<?xml version="1.0" encoding="UTF-8" ?>
<svg version="1.1" width="32" height="32" xmlns="http://www.w3.org/2000/svg" shape-rendering="crispEdges">
<rect x="13" y="1" width="6" height="2" fill="#000000" />
<rect x="10" y="2" width="3" height="2" fill="#000000" />
<rect x="19" y="2" width="3" height="2" fill="#000000" />
<rect x="8" y="3" width="2" height="2" fill="#000000" />
<rect x="13" y="3" width="2" height="11" fill="#99E550" />
<rect x="15" y="3" width="2" height="3" fill="#222034" />
<rect x="17" y="3" width="2" height="7" fill="#000000" />
<rect x="22" y="3" width="2" height="2" fill="#000000" />
<rect x="7" y="4" width="1" height="3" fill="#000000" />
<rect x="10" y="4" width="3" height="9" fill="#99E550" />
<rect x="19" y="4" width="1" height="3" fill="#000000" />
<rect x="20" y="4" width="2" height="11" fill="#5FCDE4" />
<rect x="24" y="4" width="1" height="3" fill="#000000" />
<rect x="6" y="5" width="1" height="3" fill="#000000" />
<rect x="8" y="5" width="1" height="1" fill="#000000" />
<rect x="9" y="5" width="1" height="8" fill="#99E550" />
<rect x="22" y="5" width="1" height="10" fill="#5FCDE4" />
<rect x="23" y="5" width="1" height="1" fill="#000000" />
<rect x="25" y="5" width="1" height="3" fill="#000000" />
<rect x="5" y="6" width="1" height="3" fill="#000000" />
<rect x="8" y="6" width="1" height="7" fill="#99E550" />
<rect x="15" y="6" width="1" height="5" fill="#222034" />
<rect x="16" y="6" width="1" height="25" fill="#000000" />
<rect x="23" y="6" width="1" height="9" fill="#5FCDE4" />
<rect x="26" y="6" width="1" height="3" fill="#000000" />
<rect x="4" y="7" width="1" height="3" fill="#000000" />
<rect x="7" y="7" width="1" height="5" fill="#99E550" />
<rect x="19" y="7" width="1" height="8" fill="#5FCDE4" />
<rect x="24" y="7" width="1" height="8" fill="#5FCDE4" />
<rect x="27" y="7" width="1" height="3" fill="#000000" />
<rect x="3" y="8" width="1" height="9" fill="#000000" />
<rect x="6" y="8" width="1" height="4" fill="#99E550" />
<rect x="25" y="8" width="1" height="7" fill="#5FCDE4" />
<rect x="28" y="8" width="1" height="5" fill="#000000" />
<rect x="5" y="9" width="1" height="3" fill="#99E550" />
<rect x="26" y="9" width="1" height="6" fill="#5FCDE4" />
<rect x="2" y="10" width="1" height="12" fill="#000000" />
<rect x="4" y="10" width="1" height="2" fill="#99E550" />
<rect x="17" y="10" width="1" height="3" fill="#000000" />
<rect x="18" y="10" width="1" height="5" fill="#5FCDE4" />
<rect x="27" y="10" width="1" height="5" fill="#5FCDE4" />
<rect x="29" y="10" width="1" height="12" fill="#000000" />
<rect x="15" y="11" width="1" height="6" fill="#000000" />
<rect x="4" y="12" width="4" height="1" fill="#222034" />
<rect x="1" y="13" width="1" height="6" fill="#000000" />
<rect x="4" y="13" width="4" height="4" fill="#000000" />
<rect x="8" y="13" width="5" height="1" fill="#222034" />
<rect x="17" y="13" width="1" height="2" fill="#5FCDE4" />
<rect x="28" y="13" width="1" height="2" fill="#5FCDE4" />
<rect x="30" y="13" width="1" height="6" fill="#000000" />
<rect x="8" y="14" width="5" height="3" fill="#000000" />
<rect x="13" y="14" width="2" height="1" fill="#222034" />
<rect x="13" y="15" width="2" height="2" fill="#000000" />
<rect x="17" y="15" width="12" height="3" fill="#000000" />
<rect x="3" y="17" width="12" height="2" fill="#FBF236" />
<rect x="15" y="17" width="1" height="3" fill="#222034" />
<rect x="17" y="18" width="2" height="11" fill="#D6838B" />
<rect x="19" y="18" width="10" height="1" fill="#000000" />
<rect x="3" y="19" width="1" height="5" fill="#000000" />
<rect x="4" y="19" width="11" height="1" fill="#FBF236" />
<rect x="19" y="19" width="5" height="7" fill="#D6838B" />
<rect x="24" y="19" width="5" height="1" fill="#000000" />
<rect x="4" y="20" width="10" height="2" fill="#FBF236" />
<rect x="14" y="20" width="1" height="3" fill="#222034" />
<rect x="15" y="20" width="1" height="11" fill="#000000" />
<rect x="24" y="20" width="4" height="2" fill="#D6838B" />
<rect x="28" y="20" width="1" height="4" fill="#000000" />
<rect x="4" y="22" width="1" height="3" fill="#000000" />
<rect x="5" y="22" width="9" height="1" fill="#FBF236" />
<rect x="24" y="22" width="3" height="1" fill="#D6838B" />
<rect x="27" y="22" width="1" height="3" fill="#000000" />
<rect x="5" y="23" width="1" height="3" fill="#000000" />
<rect x="6" y="23" width="7" height="1" fill="#FBF236" />
<rect x="13" y="23" width="1" height="3" fill="#222034" />
<rect x="14" y="23" width="1" height="8" fill="#000000" />
<rect x="24" y="23" width="2" height="1" fill="#D6838B" />
<rect x="26" y="23" width="1" height="3" fill="#000000" />
<rect x="6" y="24" width="1" height="3" fill="#000000" />
<rect x="7" y="24" width="6" height="1" fill="#FBF236" />
<rect x="24" y="24" width="1" height="1" fill="#D6838B" />
<rect x="25" y="24" width="1" height="3" fill="#000000" />
<rect x="7" y="25" width="1" height="3" fill="#000000" />
<rect x="8" y="25" width="5" height="1" fill="#FBF236" />
<rect x="24" y="25" width="1" height="3" fill="#000000" />
<rect x="8" y="26" width="1" height="3" fill="#000000" />
<rect x="9" y="26" width="3" height="1" fill="#FBF236" />
<rect x="12" y="26" width="1" height="2" fill="#222034" />
<rect x="13" y="26" width="1" height="5" fill="#000000" />
<rect x="19" y="26" width="4" height="1" fill="#D6838B" />
<rect x="23" y="26" width="1" height="3" fill="#000000" />
<rect x="9" y="27" width="1" height="2" fill="#000000" />
<rect x="10" y="27" width="2" height="1" fill="#FBF236" />
<rect x="19" y="27" width="3" height="1" fill="#D6838B" />
<rect x="22" y="27" width="1" height="2" fill="#000000" />
<rect x="10" y="28" width="3" height="2" fill="#000000" />
<rect x="19" y="28" width="3" height="2" fill="#000000" />
<rect x="17" y="29" width="2" height="2" fill="#000000" />
</svg>